<svg xmlns="http://www.w3.org/2000/svg" xmlns:xlink="http://www.w3.org/1999/xlink" width="1600" zoomAndPan="magnify" viewBox="0 0 1200 299.999988" height="400" preserveAspectRatio="xMidYMid meet" version="1.0"><defs><filter x="0%" y="0%" width="100%" height="100%" id="18db9966bb"><feColorMatrix values="0 0 0 0 1 0 0 0 0 1 0 0 0 0 1 0 0 0 1 0" color-interpolation-filters="sRGB"/></filter><g/><clipPath id="604d029b89"><rect x="0" width="1200" y="0" height="300"/></clipPath><clipPath id="0433f166b6"><rect x="0" width="1200" y="0" height="300"/></clipPath><mask id="4a6553db90"><g filter="url(#18db9966bb)"><g transform="matrix(1, 0, 0, 1, 0, 0)"><g clip-path="url(#0433f166b6)"><g transform="matrix(1, 0, 0, 1, 0, 0)"><g clip-path="url(#604d029b89)"><g fill="#000000" fill-opacity="1"><g transform="translate(35.098005, 199.554704)"><g><path d="M 30.734375 1.109375 C 25.828125 1.109375 21.515625 0.113281 17.796875 -1.875 C 14.085938 -3.875 11.203125 -6.65625 9.140625 -10.21875 C 7.078125 -13.789062 6.046875 -17.941406 6.046875 -22.671875 C 6.046875 -27.398438 7.332031 -31.457031 9.90625 -34.84375 C 12.476562 -38.226562 15.96875 -40.867188 20.375 -42.765625 C 23.382812 -44.023438 26.6875 -45 30.28125 -45.6875 C 33.875 -46.382812 37.46875 -46.867188 41.0625 -47.140625 C 44.65625 -47.421875 48.003906 -47.5625 51.109375 -47.5625 L 54.65625 -43.1875 L 51.109375 -36.375 C 49.441406 -36.375 47.566406 -36.253906 45.484375 -36.015625 C 43.398438 -35.785156 41.394531 -35.453125 39.46875 -35.015625 C 37.539062 -34.578125 35.929688 -34.078125 34.640625 -33.515625 C 32.828125 -32.679688 31.210938 -31.566406 29.796875 -30.171875 C 28.378906 -28.785156 27.671875 -26.65625 27.671875 -23.78125 C 27.671875 -20.03125 28.710938 -17.257812 30.796875 -15.46875 C 32.890625 -13.6875 35.582031 -12.796875 38.875 -12.796875 C 40.59375 -12.796875 42.296875 -13.023438 43.984375 -13.484375 C 45.679688 -13.953125 47.175781 -14.5 48.46875 -15.125 C 49.769531 -15.75 50.648438 -16.34375 51.109375 -16.90625 L 54.796875 -12.515625 L 52.234375 -6.53125 C 50.140625 -4.675781 47.273438 -2.9375 43.640625 -1.3125 C 40.003906 0.300781 35.703125 1.109375 30.734375 1.109375 Z M 72.328125 0 L 52.234375 0 L 52.234375 -11.546875 L 51.109375 -11.546875 L 51.109375 -53.265625 C 51.109375 -57.210938 50.066406 -59.800781 47.984375 -61.03125 C 45.898438 -62.257812 42.910156 -62.875 39.015625 -62.875 C 36.097656 -62.875 33.050781 -62.617188 29.875 -62.109375 C 26.695312 -61.597656 23.691406 -60.925781 20.859375 -60.09375 C 18.035156 -59.257812 15.671875 -58.351562 13.765625 -57.375 L 9.1875 -70.734375 C 10.757812 -71.660156 13.210938 -72.75 16.546875 -74 C 19.890625 -75.25 23.71875 -76.347656 28.03125 -77.296875 C 32.34375 -78.253906 36.675781 -78.734375 41.03125 -78.734375 C 48.175781 -78.734375 54.050781 -77.894531 58.65625 -76.21875 C 63.269531 -74.550781 66.703125 -71.722656 68.953125 -67.734375 C 71.203125 -63.742188 72.328125 -58.226562 72.328125 -51.1875 Z M 72.328125 0 "/></g></g></g><g fill="#000000" fill-opacity="1"><g transform="translate(113.963753, 199.554704)"><g><path d="M 10.84375 0 L 10.84375 -77.40625 L 30.109375 -77.40625 L 30.46875 -68.71875 C 32.226562 -70.195312 34.472656 -71.6875 37.203125 -73.1875 C 39.941406 -74.695312 42.96875 -75.960938 46.28125 -76.984375 C 49.59375 -78.003906 52.941406 -78.539062 56.328125 -78.59375 C 64.398438 -78.769531 70.335938 -76.617188 74.140625 -72.140625 C 77.941406 -67.671875 79.84375 -59.828125 79.84375 -48.609375 L 79.84375 0 L 58.5625 0 L 58.5625 -45.625 C 58.5625 -51.644531 57.769531 -55.859375 56.1875 -58.265625 C 54.613281 -60.679688 51.53125 -61.800781 46.9375 -61.625 C 45.550781 -61.570312 43.988281 -61.328125 42.25 -60.890625 C 40.507812 -60.453125 38.742188 -59.800781 36.953125 -58.9375 C 35.171875 -58.082031 33.515625 -57.03125 31.984375 -55.78125 L 31.984375 0 Z M 10.84375 0 "/></g></g></g><g fill="#000000" fill-opacity="1"><g transform="translate(198.184542, 199.554704)"><g><path d="M 30.734375 1.109375 C 25.828125 1.109375 21.515625 0.113281 17.796875 -1.875 C 14.085938 -3.875 11.203125 -6.65625 9.140625 -10.21875 C 7.078125 -13.789062 6.046875 -17.941406 6.046875 -22.671875 C 6.046875 -27.398438 7.332031 -31.457031 9.90625 -34.84375 C 12.476562 -38.226562 15.96875 -40.867188 20.375 -42.765625 C 23.382812 -44.023438 26.6875 -45 30.28125 -45.6875 C 33.875 -46.382812 37.46875 -46.867188 41.0625 -47.140625 C 44.65625 -47.421875 48.003906 -47.5625 51.109375 -47.5625 L 54.65625 -43.1875 L 51.109375 -36.375 C 49.441406 -36.375 47.566406 -36.253906 45.484375 -36.015625 C 43.398438 -35.785156 41.394531 -35.453125 39.46875 -35.015625 C 37.539062 -34.578125 35.929688 -34.078125 34.640625 -33.515625 C 32.828125 -32.679688 31.210938 -31.566406 29.796875 -30.171875 C 28.378906 -28.785156 27.671875 -26.65625 27.671875 -23.78125 C 27.671875 -20.03125 28.710938 -17.257812 30.796875 -15.46875 C 32.890625 -13.6875 35.582031 -12.796875 38.875 -12.796875 C 40.59375 -12.796875 42.296875 -13.023438 43.984375 -13.484375 C 45.679688 -13.953125 47.175781 -14.5 48.46875 -15.125 C 49.769531 -15.75 50.648438 -16.34375 51.109375 -16.90625 L 54.796875 -12.515625 L 52.234375 -6.53125 C 50.140625 -4.675781 47.273438 -2.9375 43.640625 -1.3125 C 40.003906 0.300781 35.703125 1.109375 30.734375 1.109375 Z M 72.328125 0 L 52.234375 0 L 52.234375 -11.546875 L 51.109375 -11.546875 L 51.109375 -53.265625 C 51.109375 -57.210938 50.066406 -59.800781 47.984375 -61.03125 C 45.898438 -62.257812 42.910156 -62.875 39.015625 -62.875 C 36.097656 -62.875 33.050781 -62.617188 29.875 -62.109375 C 26.695312 -61.597656 23.691406 -60.925781 20.859375 -60.09375 C 18.035156 -59.257812 15.671875 -58.351562 13.765625 -57.375 L 9.1875 -70.734375 C 10.757812 -71.660156 13.210938 -72.75 16.546875 -74 C 19.890625 -75.25 23.71875 -76.347656 28.03125 -77.296875 C 32.34375 -78.253906 36.675781 -78.734375 41.03125 -78.734375 C 48.175781 -78.734375 54.050781 -77.894531 58.65625 -76.21875 C 63.269531 -74.550781 66.703125 -71.722656 68.953125 -67.734375 C 71.203125 -63.742188 72.328125 -58.226562 72.328125 -51.1875 Z M 72.328125 0 "/></g></g></g><g fill="#000000" fill-opacity="1"><g transform="translate(277.05029, 199.554704)"><g><path d="M 10.703125 0 L 10.703125 -113.015625 L 31.984375 -113.015625 L 31.984375 0 Z M 10.703125 0 "/></g></g></g><g fill="#000000" fill-opacity="1"><g transform="translate(316.274427, 199.554704)"><g><path d="M 8.828125 33.25 L 8.828125 16.546875 C 9.617188 16.828125 10.859375 17.101562 12.546875 17.375 C 14.242188 17.65625 15.578125 17.796875 16.546875 17.796875 C 18.773438 17.796875 21.222656 17.390625 23.890625 16.578125 C 26.554688 15.773438 29.046875 13.96875 31.359375 11.15625 C 33.679688 8.351562 35.445312 3.980469 36.65625 -1.953125 L 37.625 0 L 28.4375 0 L 1.328125 -77.46875 L 23.921875 -77.46875 L 37.203125 -32.625 L 43.46875 -8.828125 L 40.546875 -8.828125 L 46.171875 -32.625 L 57.03125 -77.46875 L 79.484375 -77.46875 L 54.59375 2.015625 C 51.625 11.285156 47.992188 18.304688 43.703125 23.078125 C 39.421875 27.859375 34.796875 31.0625 29.828125 32.6875 C 28.441406 33.238281 26.671875 33.675781 24.515625 34 C 22.359375 34.332031 20.46875 34.5 18.84375 34.5 C 18.144531 34.5 17.054688 34.425781 15.578125 34.28125 C 14.097656 34.144531 12.671875 33.984375 11.296875 33.796875 C 9.929688 33.609375 9.109375 33.425781 8.828125 33.25 Z M 8.828125 33.25 "/></g></g></g><g fill="#000000" fill-opacity="1"><g transform="translate(392.497409, 199.554704)"><g><path d="M 6.53125 -4.9375 L 8.90625 -19.890625 C 9.644531 -19.285156 11.148438 -18.492188 13.421875 -17.515625 C 15.691406 -16.546875 18.398438 -15.65625 21.546875 -14.84375 C 24.703125 -14.03125 27.953125 -13.625 31.296875 -13.625 C 35.515625 -13.582031 38.617188 -14.148438 40.609375 -15.328125 C 42.609375 -16.515625 43.609375 -18.289062 43.609375 -20.65625 C 43.609375 -22.28125 42.945312 -23.691406 41.625 -24.890625 C 40.300781 -26.097656 38.503906 -27.222656 36.234375 -28.265625 C 33.960938 -29.304688 31.4375 -30.382812 28.65625 -31.5 C 23.644531 -33.5 19.503906 -35.679688 16.234375 -38.046875 C 12.972656 -40.410156 10.539062 -43.109375 8.9375 -46.140625 C 7.332031 -49.179688 6.554688 -52.738281 6.609375 -56.8125 C 6.648438 -61.632812 8.050781 -65.644531 10.8125 -68.84375 C 13.570312 -72.050781 17.257812 -74.453125 21.875 -76.046875 C 26.488281 -77.648438 31.597656 -78.453125 37.203125 -78.453125 C 42.910156 -78.453125 47.769531 -77.925781 51.78125 -76.875 C 55.789062 -75.832031 58.535156 -74.875 60.015625 -74 L 57.71875 -58.765625 C 56.84375 -59.503906 55.453125 -60.289062 53.546875 -61.125 C 51.648438 -61.96875 49.503906 -62.65625 47.109375 -63.1875 C 44.722656 -63.71875 42.300781 -63.984375 39.84375 -63.984375 C 35.351562 -63.984375 32.078125 -63.4375 30.015625 -62.34375 C 27.953125 -61.257812 26.921875 -59.695312 26.921875 -57.65625 C 26.867188 -55.007812 27.894531 -53.046875 30 -51.765625 C 32.113281 -50.492188 35.050781 -49.070312 38.8125 -47.5 C 44.375 -45.226562 49.039062 -42.96875 52.8125 -40.71875 C 56.59375 -38.46875 59.445312 -35.894531 61.375 -33 C 63.300781 -30.101562 64.265625 -26.566406 64.265625 -22.390625 C 64.265625 -14.691406 61.503906 -8.847656 55.984375 -4.859375 C 50.460938 -0.878906 43.019531 1.109375 33.65625 1.109375 C 29.71875 1.109375 25.925781 0.796875 22.28125 0.171875 C 18.644531 -0.449219 15.445312 -1.226562 12.6875 -2.15625 C 9.925781 -3.082031 7.875 -4.007812 6.53125 -4.9375 Z M 6.53125 -4.9375 "/></g></g></g><g fill="#000000" fill-opacity="1"><g transform="translate(458.566557, 199.554704)"><g><path d="M 43.1875 1.109375 C 31.269531 1.109375 22.132812 -2.4375 15.78125 -9.53125 C 9.4375 -16.625 6.265625 -26.429688 6.265625 -38.953125 C 6.265625 -46.460938 7.710938 -53.179688 10.609375 -59.109375 C 13.503906 -65.046875 17.707031 -69.738281 23.21875 -73.1875 C 28.738281 -76.644531 35.488281 -78.398438 43.46875 -78.453125 C 47.5 -78.492188 51.34375 -77.976562 55 -76.90625 C 58.664062 -75.84375 61.9375 -74.117188 64.8125 -71.734375 C 67.6875 -69.347656 69.992188 -66.195312 71.734375 -62.28125 C 73.472656 -58.363281 74.367188 -53.578125 74.421875 -47.921875 C 74.421875 -45.085938 74.375 -42.460938 74.28125 -40.046875 C 74.1875 -37.640625 73.976562 -35.582031 73.65625 -33.875 L 17.671875 -33.875 L 19.0625 -45.34375 L 54.65625 -45.34375 C 54.894531 -49.101562 54.703125 -52.40625 54.078125 -55.25 C 53.453125 -58.101562 52.234375 -60.328125 50.421875 -61.921875 C 48.609375 -63.523438 46.054688 -64.328125 42.765625 -64.328125 C 39.566406 -64.328125 36.773438 -63.445312 34.390625 -61.6875 C 32.003906 -59.925781 30.171875 -56.898438 28.890625 -52.609375 C 27.617188 -48.316406 27.078125 -42.414062 27.265625 -34.90625 C 27.453125 -29.851562 28.4375 -25.804688 30.21875 -22.765625 C 32 -19.734375 34.429688 -17.554688 37.515625 -16.234375 C 40.597656 -14.910156 44.179688 -14.25 48.265625 -14.25 C 50.492188 -14.25 52.925781 -14.4375 55.5625 -14.8125 C 58.207031 -15.1875 60.710938 -15.6875 63.078125 -16.3125 C 65.441406 -16.9375 67.25 -17.570312 68.5 -18.21875 L 72.046875 -6.671875 C 70.335938 -5.285156 67.984375 -4 64.984375 -2.8125 C 61.992188 -1.632812 58.609375 -0.6875 54.828125 0.03125 C 51.054688 0.75 47.175781 1.109375 43.1875 1.109375 Z M 43.1875 1.109375 "/></g></g></g><g fill="#000000" fill-opacity="1"><g transform="translate(535.693615, 199.554704)"><g><path d="M 6.265625 0 L 17.671875 -103.34375 L 47.4375 -103.34375 L 62.390625 -48.125 L 67.390625 -24.828125 L 71.5625 -48.125 L 85.40625 -103.34375 L 114.0625 -103.34375 L 126.71875 0 L 105.5 0 L 100.421875 -57.9375 L 98.75 -87.21875 L 92.015625 -57.453125 L 75.3125 0.765625 L 58.078125 0.765625 L 40.265625 -57.453125 L 33.171875 -87.21875 L 31.234375 -57.9375 L 26.640625 0 Z M 6.265625 0 "/></g></g></g><g fill="#000000" fill-opacity="1"><g transform="translate(665.189341, 199.554704)"><g><path d="M 30.734375 1.109375 C 25.828125 1.109375 21.515625 0.113281 17.796875 -1.875 C 14.085938 -3.875 11.203125 -6.65625 9.140625 -10.21875 C 7.078125 -13.789062 6.046875 -17.941406 6.046875 -22.671875 C 6.046875 -27.398438 7.332031 -31.457031 9.90625 -34.84375 C 12.476562 -38.226562 15.96875 -40.867188 20.375 -42.765625 C 23.382812 -44.023438 26.6875 -45 30.28125 -45.6875 C 33.875 -46.382812 37.46875 -46.867188 41.0625 -47.140625 C 44.65625 -47.421875 48.003906 -47.5625 51.109375 -47.5625 L 54.65625 -43.1875 L 51.109375 -36.375 C 49.441406 -36.375 47.566406 -36.253906 45.484375 -36.015625 C 43.398438 -35.785156 41.394531 -35.453125 39.46875 -35.015625 C 37.539062 -34.578125 35.929688 -34.078125 34.640625 -33.515625 C 32.828125 -32.679688 31.210938 -31.566406 29.796875 -30.171875 C 28.378906 -28.785156 27.671875 -26.65625 27.671875 -23.78125 C 27.671875 -20.03125 28.710938 -17.257812 30.796875 -15.46875 C 32.890625 -13.6875 35.582031 -12.796875 38.875 -12.796875 C 40.59375 -12.796875 42.296875 -13.023438 43.984375 -13.484375 C 45.679688 -13.953125 47.175781 -14.5 48.46875 -15.125 C 49.769531 -15.75 50.648438 -16.34375 51.109375 -16.90625 L 54.796875 -12.515625 L 52.234375 -6.53125 C 50.140625 -4.675781 47.273438 -2.9375 43.640625 -1.3125 C 40.003906 0.300781 35.703125 1.109375 30.734375 1.109375 Z M 72.328125 0 L 52.234375 0 L 52.234375 -11.546875 L 51.109375 -11.546875 L 51.109375 -53.265625 C 51.109375 -57.210938 50.066406 -59.800781 47.984375 -61.03125 C 45.898438 -62.257812 42.910156 -62.875 39.015625 -62.875 C 36.097656 -62.875 33.050781 -62.617188 29.875 -62.109375 C 26.695312 -61.597656 23.691406 -60.925781 20.859375 -60.09375 C 18.035156 -59.257812 15.671875 -58.351562 13.765625 -57.375 L 9.1875 -70.734375 C 10.757812 -71.660156 13.210938 -72.75 16.546875 -74 C 19.890625 -75.25 23.71875 -76.347656 28.03125 -77.296875 C 32.34375 -78.253906 36.675781 -78.734375 41.03125 -78.734375 C 48.175781 -78.734375 54.050781 -77.894531 58.65625 -76.21875 C 63.269531 -74.550781 66.703125 -71.722656 68.953125 -67.734375 C 71.203125 -63.742188 72.328125 -58.226562 72.328125 -51.1875 Z M 72.328125 0 "/></g></g></g><g fill="#000000" fill-opacity="1"><g transform="translate(744.0551, 199.554704)"><g><path d="M 34.28125 1.109375 C 29.550781 1.109375 25.644531 0.332031 22.5625 -1.21875 C 19.476562 -2.769531 17.179688 -5.238281 15.671875 -8.625 C 14.171875 -12.007812 13.421875 -16.484375 13.421875 -22.046875 L 13.421875 -62.9375 L 4.03125 -62.9375 L 4.03125 -74.28125 C 7.46875 -75.25 10.21875 -76.171875 12.28125 -77.046875 C 14.34375 -77.929688 15.835938 -79.460938 16.765625 -81.640625 C 17.222656 -82.710938 17.71875 -83.96875 18.25 -85.40625 C 18.789062 -86.84375 19.359375 -88.394531 19.953125 -90.0625 C 20.554688 -91.726562 21.1875 -93.421875 21.84375 -95.140625 L 34.640625 -95.140625 L 34.640625 -77.46875 L 55.421875 -77.46875 L 55.421875 -62.9375 L 34.640625 -62.9375 L 34.640625 -31.015625 C 34.640625 -26.097656 34.894531 -22.515625 35.40625 -20.265625 C 35.914062 -18.023438 36.796875 -16.585938 38.046875 -15.953125 C 39.296875 -15.328125 41.101562 -15.015625 43.46875 -15.015625 C 44.675781 -15.015625 46.066406 -15.164062 47.640625 -15.46875 C 49.210938 -15.769531 50.71875 -16.148438 52.15625 -16.609375 C 53.59375 -17.078125 54.707031 -17.566406 55.5 -18.078125 L 58.28125 -6.1875 C 57.03125 -5.070312 55.148438 -3.945312 52.640625 -2.8125 C 50.140625 -1.675781 47.289062 -0.738281 44.09375 0 C 40.894531 0.738281 37.625 1.109375 34.28125 1.109375 Z M 34.28125 1.109375 "/></g></g></g><g fill="#000000" fill-opacity="1"><g transform="translate(802.335023, 199.554704)"><g><path d="M 43.1875 1.109375 C 31.269531 1.109375 22.132812 -2.4375 15.78125 -9.53125 C 9.4375 -16.625 6.265625 -26.429688 6.265625 -38.953125 C 6.265625 -46.460938 7.710938 -53.179688 10.609375 -59.109375 C 13.503906 -65.046875 17.707031 -69.738281 23.21875 -73.1875 C 28.738281 -76.644531 35.488281 -78.398438 43.46875 -78.453125 C 47.5 -78.492188 51.34375 -77.976562 55 -76.90625 C 58.664062 -75.84375 61.9375 -74.117188 64.8125 -71.734375 C 67.6875 -69.347656 69.992188 -66.195312 71.734375 -62.28125 C 73.472656 -58.363281 74.367188 -53.578125 74.421875 -47.921875 C 74.421875 -45.085938 74.375 -42.460938 74.28125 -40.046875 C 74.1875 -37.640625 73.976562 -35.582031 73.65625 -33.875 L 17.671875 -33.875 L 19.0625 -45.34375 L 54.65625 -45.34375 C 54.894531 -49.101562 54.703125 -52.40625 54.078125 -55.25 C 53.453125 -58.101562 52.234375 -60.328125 50.421875 -61.921875 C 48.609375 -63.523438 46.054688 -64.328125 42.765625 -64.328125 C 39.566406 -64.328125 36.773438 -63.445312 34.390625 -61.6875 C 32.003906 -59.925781 30.171875 -56.898438 28.890625 -52.609375 C 27.617188 -48.316406 27.078125 -42.414062 27.265625 -34.90625 C 27.453125 -29.851562 28.4375 -25.804688 30.21875 -22.765625 C 32 -19.734375 34.429688 -17.554688 37.515625 -16.234375 C 40.597656 -14.910156 44.179688 -14.25 48.265625 -14.25 C 50.492188 -14.25 52.925781 -14.4375 55.5625 -14.8125 C 58.207031 -15.1875 60.710938 -15.6875 63.078125 -16.3125 C 65.441406 -16.9375 67.25 -17.570312 68.5 -18.21875 L 72.046875 -6.671875 C 70.335938 -5.285156 67.984375 -4 64.984375 -2.8125 C 61.992188 -1.632812 58.609375 -0.6875 54.828125 0.03125 C 51.054688 0.75 47.175781 1.109375 43.1875 1.109375 Z M 43.1875 1.109375 "/></g></g></g><g fill="#000000" fill-opacity="1"><g transform="translate(879.462081, 199.554704)"><g><path d="M 29.90625 -50.484375 L 28.9375 -65.375 C 29.769531 -67.601562 31.296875 -69.722656 33.515625 -71.734375 C 35.742188 -73.753906 38.390625 -75.398438 41.453125 -76.671875 C 44.515625 -77.953125 47.734375 -78.59375 51.109375 -78.59375 C 52.503906 -78.59375 53.789062 -78.519531 54.96875 -78.375 C 56.15625 -78.238281 57.023438 -78.007812 57.578125 -77.6875 L 57.578125 -57.03125 C 56.929688 -57.445312 55.9375 -57.863281 54.59375 -58.28125 C 53.25 -58.695312 51.207031 -58.90625 48.46875 -58.90625 C 45.132812 -58.90625 42.257812 -58.429688 39.84375 -57.484375 C 37.4375 -56.535156 35.410156 -55.398438 33.765625 -54.078125 C 32.117188 -52.753906 30.832031 -51.554688 29.90625 -50.484375 Z M 9.9375 0 L 9.9375 -77.40625 L 28.3125 -77.40625 L 29.484375 -65.296875 L 31.15625 -61.625 L 31.15625 0 Z M 9.9375 0 "/></g></g></g><g fill="#000000" fill-opacity="1"><g transform="translate(936.977036, 199.554704)"><g><path d="M 11.265625 0 L 11.265625 -77.40625 L 32.484375 -77.40625 L 32.484375 0 Z M 20.78125 -88.609375 C 17.351562 -88.609375 14.457031 -89.675781 12.09375 -91.8125 C 9.726562 -93.945312 8.546875 -96.726562 8.546875 -100.15625 C 8.546875 -102.46875 9.179688 -104.585938 10.453125 -106.515625 C 11.734375 -108.441406 13.40625 -109.984375 15.46875 -111.140625 C 17.53125 -112.296875 19.742188 -112.875 22.109375 -112.875 C 25.910156 -112.875 28.890625 -111.796875 31.046875 -109.640625 C 33.203125 -107.484375 34.28125 -104.71875 34.28125 -101.34375 C 34.28125 -97.8125 32.945312 -94.804688 30.28125 -92.328125 C 27.613281 -89.847656 24.445312 -88.609375 20.78125 -88.609375 Z M 20.78125 -88.609375 "/></g></g></g><g fill="#000000" fill-opacity="1"><g transform="translate(977.244335, 199.554704)"><g><path d="M 30.734375 1.109375 C 25.828125 1.109375 21.515625 0.113281 17.796875 -1.875 C 14.085938 -3.875 11.203125 -6.65625 9.140625 -10.21875 C 7.078125 -13.789062 6.046875 -17.941406 6.046875 -22.671875 C 6.046875 -27.398438 7.332031 -31.457031 9.90625 -34.84375 C 12.476562 -38.226562 15.96875 -40.867188 20.375 -42.765625 C 23.382812 -44.023438 26.6875 -45 30.28125 -45.6875 C 33.875 -46.382812 37.46875 -46.867188 41.0625 -47.140625 C 44.65625 -47.421875 48.003906 -47.5625 51.109375 -47.5625 L 54.65625 -43.1875 L 51.109375 -36.375 C 49.441406 -36.375 47.566406 -36.253906 45.484375 -36.015625 C 43.398438 -35.785156 41.394531 -35.453125 39.46875 -35.015625 C 37.539062 -34.578125 35.929688 -34.078125 34.640625 -33.515625 C 32.828125 -32.679688 31.210938 -31.566406 29.796875 -30.171875 C 28.378906 -28.785156 27.671875 -26.65625 27.671875 -23.78125 C 27.671875 -20.03125 28.710938 -17.257812 30.796875 -15.46875 C 32.890625 -13.6875 35.582031 -12.796875 38.875 -12.796875 C 40.59375 -12.796875 42.296875 -13.023438 43.984375 -13.484375 C 45.679688 -13.953125 47.175781 -14.5 48.46875 -15.125 C 49.769531 -15.75 50.648438 -16.34375 51.109375 -16.90625 L 54.796875 -12.515625 L 52.234375 -6.53125 C 50.140625 -4.675781 47.273438 -2.9375 43.640625 -1.3125 C 40.003906 0.300781 35.703125 1.109375 30.734375 1.109375 Z M 72.328125 0 L 52.234375 0 L 52.234375 -11.546875 L 51.109375 -11.546875 L 51.109375 -53.265625 C 51.109375 -57.210938 50.066406 -59.800781 47.984375 -61.03125 C 45.898438 -62.257812 42.910156 -62.875 39.015625 -62.875 C 36.097656 -62.875 33.050781 -62.617188 29.875 -62.109375 C 26.695312 -61.597656 23.691406 -60.925781 20.859375 -60.09375 C 18.035156 -59.257812 15.671875 -58.351562 13.765625 -57.375 L 9.1875 -70.734375 C 10.757812 -71.660156 13.210938 -72.75 16.546875 -74 C 19.890625 -75.25 23.71875 -76.347656 28.03125 -77.296875 C 32.34375 -78.253906 36.675781 -78.734375 41.03125 -78.734375 C 48.175781 -78.734375 54.050781 -77.894531 58.65625 -76.21875 C 63.269531 -74.550781 66.703125 -71.722656 68.953125 -67.734375 C 71.203125 -63.742188 72.328125 -58.226562 72.328125 -51.1875 Z M 72.328125 0 "/></g></g></g><g fill="#000000" fill-opacity="1"><g transform="translate(1056.110094, 199.554704)"><g><path d="M 10.703125 0 L 10.703125 -113.015625 L 31.984375 -113.015625 L 31.984375 0 Z M 10.703125 0 "/></g></g></g><g fill="#000000" fill-opacity="1"><g transform="translate(1095.334209, 199.554704)"><g><path d="M 6.53125 -4.9375 L 8.90625 -19.890625 C 9.644531 -19.285156 11.148438 -18.492188 13.421875 -17.515625 C 15.691406 -16.546875 18.398438 -15.65625 21.546875 -14.84375 C 24.703125 -14.03125 27.953125 -13.625 31.296875 -13.625 C 35.515625 -13.582031 38.617188 -14.148438 40.609375 -15.328125 C 42.609375 -16.515625 43.609375 -18.289062 43.609375 -20.65625 C 43.609375 -22.28125 42.945312 -23.691406 41.625 -24.890625 C 40.300781 -26.097656 38.503906 -27.222656 36.234375 -28.265625 C 33.960938 -29.304688 31.4375 -30.382812 28.65625 -31.5 C 23.644531 -33.5 19.503906 -35.679688 16.234375 -38.046875 C 12.972656 -40.410156 10.539062 -43.109375 8.9375 -46.140625 C 7.332031 -49.179688 6.554688 -52.738281 6.609375 -56.8125 C 6.648438 -61.632812 8.050781 -65.644531 10.8125 -68.84375 C 13.570312 -72.050781 17.257812 -74.453125 21.875 -76.046875 C 26.488281 -77.648438 31.597656 -78.453125 37.203125 -78.453125 C 42.910156 -78.453125 47.769531 -77.925781 51.78125 -76.875 C 55.789062 -75.832031 58.535156 -74.875 60.015625 -74 L 57.71875 -58.765625 C 56.84375 -59.503906 55.453125 -60.289062 53.546875 -61.125 C 51.648438 -61.96875 49.503906 -62.65625 47.109375 -63.1875 C 44.722656 -63.71875 42.300781 -63.984375 39.84375 -63.984375 C 35.351562 -63.984375 32.078125 -63.4375 30.015625 -62.34375 C 27.953125 -61.257812 26.921875 -59.695312 26.921875 -57.65625 C 26.867188 -55.007812 27.894531 -53.046875 30 -51.765625 C 32.113281 -50.492188 35.050781 -49.070312 38.8125 -47.5 C 44.375 -45.226562 49.039062 -42.96875 52.8125 -40.71875 C 56.59375 -38.46875 59.445312 -35.894531 61.375 -33 C 63.300781 -30.101562 64.265625 -26.566406 64.265625 -22.390625 C 64.265625 -14.691406 61.503906 -8.847656 55.984375 -4.859375 C 50.460938 -0.878906 43.019531 1.109375 33.65625 1.109375 C 29.71875 1.109375 25.925781 0.796875 22.28125 0.171875 C 18.644531 -0.449219 15.445312 -1.226562 12.6875 -2.15625 C 9.925781 -3.082031 7.875 -4.007812 6.53125 -4.9375 Z M 6.53125 -4.9375 "/></g></g></g></g></g></g></g></g></mask><clipPath id="8f63b89182"><path d="M 0 0 L 1200 0 L 1200 300 L 0 300 Z M 0 0 " clip-rule="nonzero"/></clipPath><linearGradient x1="256.289699" gradientTransform="matrix(0.745139, 0, 0, 0.745436, 33.100407, 53.093242)" y1="-371.936248" x2="1262.734352" gradientUnits="userSpaceOnUse" y2="634.507287" id="b57ba5b64c"><stop stop-opacity="1" stop-color="rgb(0%, 0%, 0%)" offset="0"/><stop stop-opacity="1" stop-color="rgb(0%, 0%, 0%)" offset="0.0625"/><stop stop-opacity="1" stop-color="rgb(0.00305176%, 0.167847%, 0.17395%)" offset="0.0703125"/><stop stop-opacity="1" stop-color="rgb(0.0106812%, 0.604248%, 0.628662%)" offset="0.0742187"/><stop stop-opacity="1" stop-color="rgb(0.0167847%, 0.872803%, 0.907898%)" offset="0.078125"/><stop stop-opacity="1" stop-color="rgb(0.0213623%, 1.141357%, 1.187134%)" offset="0.0820312"/><stop stop-opacity="1" stop-color="rgb(0.0274658%, 1.409912%, 1.46637%)" offset="0.0859375"/><stop stop-opacity="1" stop-color="rgb(0.0320435%, 1.678467%, 1.74408%)" offset="0.0898438"/><stop stop-opacity="1" stop-color="rgb(0.038147%, 1.947021%, 2.023315%)" offset="0.09375"/><stop stop-opacity="1" stop-color="rgb(0.0427246%, 2.215576%, 2.302551%)" offset="0.0976562"/><stop stop-opacity="1" stop-color="rgb(0.0488281%, 2.484131%, 2.581787%)" offset="0.101562"/><stop stop-opacity="1" stop-color="rgb(0.0534058%, 2.75116%, 2.859497%)" offset="0.105469"/><stop stop-opacity="1" stop-color="rgb(0.0595093%, 3.019714%, 3.138733%)" offset="0.109375"/><stop stop-opacity="1" stop-color="rgb(0.0640869%, 3.288269%, 3.417969%)" offset="0.113281"/><stop stop-opacity="1" stop-color="rgb(0.0701904%, 3.556824%, 3.697205%)" offset="0.117187"/><stop stop-opacity="1" stop-color="rgb(0.0747681%, 3.825378%, 3.97644%)" offset="0.121094"/><stop stop-opacity="1" stop-color="rgb(0.0808716%, 4.093933%, 4.255676%)" offset="0.125"/><stop stop-opacity="1" stop-color="rgb(0.0854492%, 4.362488%, 4.533386%)" offset="0.128906"/><stop stop-opacity="1" stop-color="rgb(0.0915527%, 4.631042%, 4.812622%)" offset="0.132812"/><stop stop-opacity="1" stop-color="rgb(0.0961304%, 4.898071%, 5.091858%)" offset="0.136719"/><stop stop-opacity="1" stop-color="rgb(0.102234%, 5.166626%, 5.371094%)" offset="0.140625"/><stop stop-opacity="1" stop-color="rgb(0.106812%, 5.435181%, 5.65033%)" offset="0.144531"/><stop stop-opacity="1" stop-color="rgb(0.112915%, 5.703735%, 5.929565%)" offset="0.148437"/><stop stop-opacity="1" stop-color="rgb(0.117493%, 5.97229%, 6.207275%)" offset="0.152344"/><stop stop-opacity="1" stop-color="rgb(0.12207%, 6.240845%, 6.486511%)" offset="0.15625"/><stop stop-opacity="1" stop-color="rgb(0.126648%, 6.509399%, 6.765747%)" offset="0.160156"/><stop stop-opacity="1" stop-color="rgb(0.132751%, 6.777954%, 7.044983%)" offset="0.164062"/><stop stop-opacity="1" stop-color="rgb(0.137329%, 7.046509%, 7.324219%)" offset="0.167969"/><stop stop-opacity="1" stop-color="rgb(0.143433%, 7.315063%, 7.603455%)" offset="0.171875"/><stop stop-opacity="1" stop-color="rgb(0.14801%, 7.582092%, 7.881165%)" offset="0.175781"/><stop stop-opacity="1" stop-color="rgb(0.154114%, 7.850647%, 8.1604%)" offset="0.179688"/><stop stop-opacity="1" stop-color="rgb(0.158691%, 8.119202%, 8.439636%)" offset="0.183594"/><stop stop-opacity="1" stop-color="rgb(0.164795%, 8.387756%, 8.718872%)" offset="0.1875"/><stop stop-opacity="1" stop-color="rgb(0.169373%, 8.656311%, 8.996582%)" offset="0.191406"/><stop stop-opacity="1" stop-color="rgb(0.175476%, 8.924866%, 9.275818%)" offset="0.195312"/><stop stop-opacity="1" stop-color="rgb(0.180054%, 9.19342%, 9.555054%)" offset="0.199219"/><stop stop-opacity="1" stop-color="rgb(0.186157%, 9.461975%, 9.83429%)" offset="0.203125"/><stop stop-opacity="1" stop-color="rgb(0.190735%, 9.729004%, 10.113525%)" offset="0.207031"/><stop stop-opacity="1" stop-color="rgb(0.196838%, 9.997559%, 10.392761%)" offset="0.210938"/><stop stop-opacity="1" stop-color="rgb(0.201416%, 10.266113%, 10.670471%)" offset="0.214844"/><stop stop-opacity="1" stop-color="rgb(0.20752%, 10.534668%, 10.949707%)" offset="0.21875"/><stop stop-opacity="1" stop-color="rgb(0.212097%, 10.803223%, 11.228943%)" offset="0.222656"/><stop stop-opacity="1" stop-color="rgb(0.218201%, 11.071777%, 11.508179%)" offset="0.226562"/><stop stop-opacity="1" stop-color="rgb(0.222778%, 11.340332%, 11.787415%)" offset="0.230469"/><stop stop-opacity="1" stop-color="rgb(0.228882%, 11.608887%, 12.06665%)" offset="0.234375"/><stop stop-opacity="1" stop-color="rgb(0.233459%, 11.875916%, 12.34436%)" offset="0.238281"/><stop stop-opacity="1" stop-color="rgb(0.239563%, 12.14447%, 12.623596%)" offset="0.242188"/><stop stop-opacity="1" stop-color="rgb(0.244141%, 12.413025%, 12.902832%)" offset="0.246094"/><stop stop-opacity="1" stop-color="rgb(0.250244%, 12.68158%, 13.182068%)" offset="0.25"/><stop stop-opacity="1" stop-color="rgb(0.254822%, 12.950134%, 13.459778%)" offset="0.253906"/><stop stop-opacity="1" stop-color="rgb(0.260925%, 13.218689%, 13.739014%)" offset="0.257812"/><stop stop-opacity="1" stop-color="rgb(0.265503%, 13.487244%, 14.01825%)" offset="0.261719"/><stop stop-opacity="1" stop-color="rgb(0.271606%, 13.755798%, 14.297485%)" offset="0.265625"/><stop stop-opacity="1" stop-color="rgb(0.276184%, 14.022827%, 14.576721%)" offset="0.269531"/><stop stop-opacity="1" stop-color="rgb(0.282288%, 14.291382%, 14.855957%)" offset="0.273437"/><stop stop-opacity="1" stop-color="rgb(0.286865%, 14.559937%, 15.133667%)" offset="0.277344"/><stop stop-opacity="1" stop-color="rgb(0.292969%, 14.828491%, 15.412903%)" offset="0.28125"/><stop stop-opacity="1" stop-color="rgb(0.297546%, 15.097046%, 15.692139%)" offset="0.285156"/><stop stop-opacity="1" stop-color="rgb(0.30365%, 15.365601%, 15.971375%)" offset="0.289062"/><stop stop-opacity="1" stop-color="rgb(0.308228%, 15.634155%, 16.25061%)" offset="0.292969"/><stop stop-opacity="1" stop-color="rgb(0.314331%, 15.90271%, 16.529846%)" offset="0.296875"/><stop stop-opacity="1" stop-color="rgb(0.318909%, 16.171265%, 16.807556%)" offset="0.300781"/><stop stop-opacity="1" stop-color="rgb(0.325012%, 16.439819%, 17.086792%)" offset="0.304687"/><stop stop-opacity="1" stop-color="rgb(0.32959%, 16.706848%, 17.366028%)" offset="0.308594"/><stop stop-opacity="1" stop-color="rgb(0.335693%, 16.975403%, 17.645264%)" offset="0.3125"/><stop stop-opacity="1" stop-color="rgb(0.340271%, 17.243958%, 17.9245%)" offset="0.316406"/><stop stop-opacity="1" stop-color="rgb(0.346375%, 17.512512%, 18.203735%)" offset="0.320312"/><stop stop-opacity="1" stop-color="rgb(0.350952%, 17.781067%, 18.481445%)" offset="0.324219"/><stop stop-opacity="1" stop-color="rgb(0.357056%, 18.049622%, 18.760681%)" offset="0.328125"/><stop stop-opacity="1" stop-color="rgb(0.361633%, 18.318176%, 19.039917%)" offset="0.332031"/><stop stop-opacity="1" stop-color="rgb(0.367737%, 18.586731%, 19.319153%)" offset="0.335937"/><stop stop-opacity="1" stop-color="rgb(0.372314%, 18.85376%, 19.596863%)" offset="0.339844"/><stop stop-opacity="1" stop-color="rgb(0.378418%, 19.122314%, 19.876099%)" offset="0.34375"/><stop stop-opacity="1" stop-color="rgb(0.382996%, 19.390869%, 20.155334%)" offset="0.347656"/><stop stop-opacity="1" stop-color="rgb(0.389099%, 19.659424%, 20.43457%)" offset="0.351562"/><stop stop-opacity="1" stop-color="rgb(0.393677%, 19.927979%, 20.713806%)" offset="0.355469"/><stop stop-opacity="1" stop-color="rgb(0.39978%, 20.196533%, 20.993042%)" offset="0.359375"/><stop stop-opacity="1" stop-color="rgb(0.404358%, 20.465088%, 21.270752%)" offset="0.363281"/><stop stop-opacity="1" stop-color="rgb(0.408936%, 20.733643%, 21.549988%)" offset="0.367188"/><stop stop-opacity="1" stop-color="rgb(0.413513%, 21.000671%, 21.829224%)" offset="0.371094"/><stop stop-opacity="1" stop-color="rgb(0.419617%, 21.269226%, 22.108459%)" offset="0.375"/><stop stop-opacity="1" stop-color="rgb(0.424194%, 21.537781%, 22.387695%)" offset="0.378906"/><stop stop-opacity="1" stop-color="rgb(0.430298%, 21.806335%, 22.666931%)" offset="0.382812"/><stop stop-opacity="1" stop-color="rgb(0.434875%, 22.07489%, 22.944641%)" offset="0.386719"/><stop stop-opacity="1" stop-color="rgb(0.440979%, 22.343445%, 23.223877%)" offset="0.390625"/><stop stop-opacity="1" stop-color="rgb(0.445557%, 22.612%, 23.503113%)" offset="0.394531"/><stop stop-opacity="1" stop-color="rgb(0.45166%, 22.880554%, 23.782349%)" offset="0.398437"/><stop stop-opacity="1" stop-color="rgb(0.456238%, 23.147583%, 24.060059%)" offset="0.402344"/><stop stop-opacity="1" stop-color="rgb(0.462341%, 23.416138%, 24.339294%)" offset="0.40625"/><stop stop-opacity="1" stop-color="rgb(0.466919%, 23.684692%, 24.61853%)" offset="0.410156"/><stop stop-opacity="1" stop-color="rgb(0.473022%, 23.953247%, 24.897766%)" offset="0.414062"/><stop stop-opacity="1" stop-color="rgb(0.4776%, 24.221802%, 25.177002%)" offset="0.417969"/><stop stop-opacity="1" stop-color="rgb(0.483704%, 24.490356%, 25.456238%)" offset="0.421875"/><stop stop-opacity="1" stop-color="rgb(0.488281%, 24.758911%, 25.733948%)" offset="0.425781"/><stop stop-opacity="1" stop-color="rgb(0.494385%, 25.027466%, 26.013184%)" offset="0.429687"/><stop stop-opacity="1" stop-color="rgb(0.498962%, 25.296021%, 26.292419%)" offset="0.433594"/><stop stop-opacity="1" stop-color="rgb(0.505066%, 25.564575%, 26.571655%)" offset="0.4375"/><stop stop-opacity="1" stop-color="rgb(0.509644%, 25.831604%, 26.850891%)" offset="0.441406"/><stop stop-opacity="1" stop-color="rgb(0.515747%, 26.100159%, 27.130127%)" offset="0.445312"/><stop stop-opacity="1" stop-color="rgb(0.520325%, 26.368713%, 27.407837%)" offset="0.449219"/><stop stop-opacity="1" stop-color="rgb(0.526428%, 26.637268%, 27.687073%)" offset="0.453125"/><stop stop-opacity="1" stop-color="rgb(0.531006%, 26.905823%, 27.966309%)" offset="0.457031"/><stop stop-opacity="1" stop-color="rgb(0.537109%, 27.174377%, 28.245544%)" offset="0.460937"/><stop stop-opacity="1" stop-color="rgb(0.541687%, 27.442932%, 28.52478%)" offset="0.464844"/><stop stop-opacity="1" stop-color="rgb(0.547791%, 27.711487%, 28.804016%)" offset="0.46875"/><stop stop-opacity="1" stop-color="rgb(0.552368%, 27.978516%, 29.081726%)" offset="0.472656"/><stop stop-opacity="1" stop-color="rgb(0.558472%, 28.24707%, 29.360962%)" offset="0.476562"/><stop stop-opacity="1" stop-color="rgb(0.563049%, 28.515625%, 29.640198%)" offset="0.480469"/><stop stop-opacity="1" stop-color="rgb(0.569153%, 28.78418%, 29.919434%)" offset="0.484375"/><stop stop-opacity="1" stop-color="rgb(0.57373%, 29.052734%, 30.197144%)" offset="0.488281"/><stop stop-opacity="1" stop-color="rgb(0.579834%, 29.321289%, 30.476379%)" offset="0.492187"/><stop stop-opacity="1" stop-color="rgb(0.584412%, 29.589844%, 30.755615%)" offset="0.496094"/><stop stop-opacity="1" stop-color="rgb(0.590515%, 29.858398%, 31.034851%)" offset="0.5"/><stop stop-opacity="1" stop-color="rgb(0.595093%, 30.125427%, 31.314087%)" offset="0.503906"/><stop stop-opacity="1" stop-color="rgb(0.601196%, 30.393982%, 31.593323%)" offset="0.507812"/><stop stop-opacity="1" stop-color="rgb(0.605774%, 30.662537%, 31.871033%)" offset="0.511719"/><stop stop-opacity="1" stop-color="rgb(0.611877%, 30.931091%, 32.150269%)" offset="0.515625"/><stop stop-opacity="1" stop-color="rgb(0.616455%, 31.199646%, 32.429504%)" offset="0.519531"/><stop stop-opacity="1" stop-color="rgb(0.622559%, 31.468201%, 32.70874%)" offset="0.523438"/><stop stop-opacity="1" stop-color="rgb(0.627136%, 31.736755%, 32.987976%)" offset="0.527344"/><stop stop-opacity="1" stop-color="rgb(0.63324%, 32.00531%, 33.267212%)" offset="0.53125"/><stop stop-opacity="1" stop-color="rgb(0.637817%, 32.272339%, 33.544922%)" offset="0.535156"/><stop stop-opacity="1" stop-color="rgb(0.643921%, 32.540894%, 33.824158%)" offset="0.539062"/><stop stop-opacity="1" stop-color="rgb(0.648499%, 32.809448%, 34.103394%)" offset="0.542969"/><stop stop-opacity="1" stop-color="rgb(0.654602%, 33.078003%, 34.382629%)" offset="0.546875"/><stop stop-opacity="1" stop-color="rgb(0.65918%, 33.346558%, 34.661865%)" offset="0.550781"/><stop stop-opacity="1" stop-color="rgb(0.665283%, 33.615112%, 34.941101%)" offset="0.554687"/><stop stop-opacity="1" stop-color="rgb(0.669861%, 33.883667%, 35.218811%)" offset="0.558594"/><stop stop-opacity="1" stop-color="rgb(0.675964%, 34.152222%, 35.498047%)" offset="0.5625"/><stop stop-opacity="1" stop-color="rgb(0.680542%, 34.420776%, 35.777283%)" offset="0.566406"/><stop stop-opacity="1" stop-color="rgb(0.686646%, 34.689331%, 36.056519%)" offset="0.570312"/><stop stop-opacity="1" stop-color="rgb(0.691223%, 34.95636%, 36.334229%)" offset="0.574219"/><stop stop-opacity="1" stop-color="rgb(0.695801%, 35.224915%, 36.613464%)" offset="0.578125"/><stop stop-opacity="1" stop-color="rgb(0.700378%, 35.493469%, 36.8927%)" offset="0.582031"/><stop stop-opacity="1" stop-color="rgb(0.706482%, 35.762024%, 37.171936%)" offset="0.585937"/><stop stop-opacity="1" stop-color="rgb(0.71106%, 36.030579%, 37.451172%)" offset="0.589844"/><stop stop-opacity="1" stop-color="rgb(0.717163%, 36.299133%, 37.730408%)" offset="0.59375"/><stop stop-opacity="1" stop-color="rgb(0.721741%, 36.567688%, 38.008118%)" offset="0.597656"/><stop stop-opacity="1" stop-color="rgb(0.727844%, 36.836243%, 38.287354%)" offset="0.601562"/><stop stop-opacity="1" stop-color="rgb(0.732422%, 37.103271%, 38.566589%)" offset="0.605469"/><stop stop-opacity="1" stop-color="rgb(0.738525%, 37.371826%, 38.845825%)" offset="0.609375"/><stop stop-opacity="1" stop-color="rgb(0.743103%, 37.640381%, 39.125061%)" offset="0.613281"/><stop stop-opacity="1" stop-color="rgb(0.749207%, 37.908936%, 39.404297%)" offset="0.617187"/><stop stop-opacity="1" stop-color="rgb(0.753784%, 38.17749%, 39.682007%)" offset="0.621094"/><stop stop-opacity="1" stop-color="rgb(0.759888%, 38.446045%, 39.961243%)" offset="0.625"/><stop stop-opacity="1" stop-color="rgb(0.764465%, 38.7146%, 40.240479%)" offset="0.628906"/><stop stop-opacity="1" stop-color="rgb(0.770569%, 38.983154%, 40.519714%)" offset="0.632812"/><stop stop-opacity="1" stop-color="rgb(0.775146%, 39.250183%, 40.797424%)" offset="0.636719"/><stop stop-opacity="1" stop-color="rgb(0.78125%, 39.518738%, 41.07666%)" offset="0.640625"/><stop stop-opacity="1" stop-color="rgb(0.785828%, 39.787292%, 41.355896%)" offset="0.644531"/><stop stop-opacity="1" stop-color="rgb(0.791931%, 40.055847%, 41.635132%)" offset="0.648437"/><stop stop-opacity="1" stop-color="rgb(0.796509%, 40.324402%, 41.914368%)" offset="0.652344"/><stop stop-opacity="1" stop-color="rgb(0.802612%, 40.592957%, 42.193604%)" offset="0.65625"/><stop stop-opacity="1" stop-color="rgb(0.80719%, 40.861511%, 42.471313%)" offset="0.660156"/><stop stop-opacity="1" stop-color="rgb(0.813293%, 41.130066%, 42.750549%)" offset="0.664062"/><stop stop-opacity="1" stop-color="rgb(0.817871%, 41.397095%, 43.029785%)" offset="0.667969"/><stop stop-opacity="1" stop-color="rgb(0.823975%, 41.665649%, 43.309021%)" offset="0.671875"/><stop stop-opacity="1" stop-color="rgb(0.828552%, 41.934204%, 43.588257%)" offset="0.675781"/><stop stop-opacity="1" stop-color="rgb(0.834656%, 42.202759%, 43.867493%)" offset="0.679687"/><stop stop-opacity="1" stop-color="rgb(0.839233%, 42.471313%, 44.145203%)" offset="0.683594"/><stop stop-opacity="1" stop-color="rgb(0.845337%, 42.739868%, 44.424438%)" offset="0.6875"/><stop stop-opacity="1" stop-color="rgb(0.849915%, 43.008423%, 44.703674%)" offset="0.691406"/><stop stop-opacity="1" stop-color="rgb(0.856018%, 43.276978%, 44.98291%)" offset="0.695312"/><stop stop-opacity="1" stop-color="rgb(0.860596%, 43.545532%, 45.262146%)" offset="0.699219"/><stop stop-opacity="1" stop-color="rgb(0.866699%, 43.814087%, 45.541382%)" offset="0.703125"/><stop stop-opacity="1" stop-color="rgb(0.871277%, 44.081116%, 45.819092%)" offset="0.707031"/><stop stop-opacity="1" stop-color="rgb(0.87738%, 44.34967%, 46.098328%)" offset="0.710937"/><stop stop-opacity="1" stop-color="rgb(0.881958%, 44.618225%, 46.377563%)" offset="0.714844"/><stop stop-opacity="1" stop-color="rgb(0.888062%, 44.88678%, 46.656799%)" offset="0.71875"/><stop stop-opacity="1" stop-color="rgb(0.892639%, 45.155334%, 46.934509%)" offset="0.722656"/><stop stop-opacity="1" stop-color="rgb(0.898743%, 45.423889%, 47.213745%)" offset="0.726562"/><stop stop-opacity="1" stop-color="rgb(0.90332%, 45.692444%, 47.492981%)" offset="0.730469"/><stop stop-opacity="1" stop-color="rgb(0.909424%, 45.960999%, 47.772217%)" offset="0.734375"/><stop stop-opacity="1" stop-color="rgb(0.914001%, 46.228027%, 48.051453%)" offset="0.738281"/><stop stop-opacity="1" stop-color="rgb(0.920105%, 46.496582%, 48.330688%)" offset="0.742187"/><stop stop-opacity="1" stop-color="rgb(0.924683%, 46.765137%, 48.608398%)" offset="0.746094"/><stop stop-opacity="1" stop-color="rgb(0.930786%, 47.033691%, 48.887634%)" offset="0.75"/><stop stop-opacity="1" stop-color="rgb(0.935364%, 47.302246%, 49.16687%)" offset="0.753906"/><stop stop-opacity="1" stop-color="rgb(0.941467%, 47.570801%, 49.446106%)" offset="0.757812"/><stop stop-opacity="1" stop-color="rgb(0.946045%, 47.839355%, 49.725342%)" offset="0.761719"/><stop stop-opacity="1" stop-color="rgb(0.952148%, 48.10791%, 50.004578%)" offset="0.765625"/><stop stop-opacity="1" stop-color="rgb(0.956726%, 48.374939%, 50.282288%)" offset="0.769531"/><stop stop-opacity="1" stop-color="rgb(0.96283%, 48.643494%, 50.561523%)" offset="0.773437"/><stop stop-opacity="1" stop-color="rgb(0.967407%, 48.912048%, 50.840759%)" offset="0.777344"/><stop stop-opacity="1" stop-color="rgb(0.973511%, 49.180603%, 51.119995%)" offset="0.78125"/><stop stop-opacity="1" stop-color="rgb(0.978088%, 49.449158%, 51.397705%)" offset="0.785156"/><stop stop-opacity="1" stop-color="rgb(0.982666%, 49.717712%, 51.676941%)" offset="0.789062"/><stop stop-opacity="1" stop-color="rgb(0.987244%, 49.986267%, 51.956177%)" offset="0.792969"/><stop stop-opacity="1" stop-color="rgb(0.993347%, 50.254822%, 52.235413%)" offset="0.796875"/><stop stop-opacity="1" stop-color="rgb(0.997925%, 50.521851%, 52.514648%)" offset="0.800781"/><stop stop-opacity="1" stop-color="rgb(1.004028%, 50.790405%, 52.793884%)" offset="0.804687"/><stop stop-opacity="1" stop-color="rgb(1.008606%, 51.05896%, 53.071594%)" offset="0.808594"/><stop stop-opacity="1" stop-color="rgb(1.014709%, 51.327515%, 53.35083%)" offset="0.8125"/><stop stop-opacity="1" stop-color="rgb(1.019287%, 51.596069%, 53.630066%)" offset="0.816406"/><stop stop-opacity="1" stop-color="rgb(1.025391%, 51.864624%, 53.909302%)" offset="0.820312"/><stop stop-opacity="1" stop-color="rgb(1.029968%, 52.133179%, 54.188538%)" offset="0.824219"/><stop stop-opacity="1" stop-color="rgb(1.036072%, 52.401733%, 54.467773%)" offset="0.828125"/><stop stop-opacity="1" stop-color="rgb(1.040649%, 52.670288%, 54.745483%)" offset="0.832031"/><stop stop-opacity="1" stop-color="rgb(1.046753%, 52.938843%, 55.024719%)" offset="0.835937"/><stop stop-opacity="1" stop-color="rgb(1.051331%, 53.205872%, 55.303955%)" offset="0.839844"/><stop stop-opacity="1" stop-color="rgb(1.057434%, 53.474426%, 55.583191%)" offset="0.84375"/><stop stop-opacity="1" stop-color="rgb(1.062012%, 53.742981%, 55.862427%)" offset="0.847656"/><stop stop-opacity="1" stop-color="rgb(1.068115%, 54.011536%, 56.141663%)" offset="0.851562"/><stop stop-opacity="1" stop-color="rgb(1.072693%, 54.28009%, 56.419373%)" offset="0.855469"/><stop stop-opacity="1" stop-color="rgb(1.078796%, 54.548645%, 56.698608%)" offset="0.859375"/><stop stop-opacity="1" stop-color="rgb(1.083374%, 54.8172%, 56.977844%)" offset="0.863281"/><stop stop-opacity="1" stop-color="rgb(1.089478%, 55.085754%, 57.25708%)" offset="0.867187"/><stop stop-opacity="1" stop-color="rgb(1.094055%, 55.352783%, 57.53479%)" offset="0.871094"/><stop stop-opacity="1" stop-color="rgb(1.100159%, 55.621338%, 57.814026%)" offset="0.875"/><stop stop-opacity="1" stop-color="rgb(1.104736%, 55.889893%, 58.093262%)" offset="0.878906"/><stop stop-opacity="1" stop-color="rgb(1.11084%, 56.158447%, 58.372498%)" offset="0.882812"/><stop stop-opacity="1" stop-color="rgb(1.115417%, 56.427002%, 58.651733%)" offset="0.886719"/><stop stop-opacity="1" stop-color="rgb(1.121521%, 56.695557%, 58.930969%)" offset="0.890625"/><stop stop-opacity="1" stop-color="rgb(1.126099%, 56.964111%, 59.208679%)" offset="0.894531"/><stop stop-opacity="1" stop-color="rgb(1.132202%, 57.232666%, 59.487915%)" offset="0.898437"/><stop stop-opacity="1" stop-color="rgb(1.13678%, 57.499695%, 59.767151%)" offset="0.902344"/><stop stop-opacity="1" stop-color="rgb(1.142883%, 57.76825%, 60.046387%)" offset="0.90625"/><stop stop-opacity="1" stop-color="rgb(1.147461%, 58.036804%, 60.325623%)" offset="0.910156"/><stop stop-opacity="1" stop-color="rgb(1.153564%, 58.305359%, 60.604858%)" offset="0.914062"/><stop stop-opacity="1" stop-color="rgb(1.158142%, 58.573914%, 60.882568%)" offset="0.917969"/><stop stop-opacity="1" stop-color="rgb(1.164246%, 58.842468%, 61.161804%)" offset="0.921875"/><stop stop-opacity="1" stop-color="rgb(1.168823%, 59.111023%, 61.44104%)" offset="0.925781"/><stop stop-opacity="1" stop-color="rgb(1.174927%, 59.379578%, 61.720276%)" offset="0.929687"/><stop stop-opacity="1" stop-color="rgb(1.176453%, 59.494019%, 61.839294%)" offset="0.9375"/><stop stop-opacity="1" stop-color="rgb(1.179504%, 59.609985%, 61.959839%)" offset="1"/></linearGradient><clipPath id="b7d888fc0e"><rect x="0" width="1200" y="0" height="300"/></clipPath><clipPath id="0bc36d03ce"><rect x="0" width="1200" y="0" height="300"/></clipPath><clipPath id="f230c94145"><rect x="0" width="1200" y="0" height="300"/></clipPath></defs><g transform="matrix(1, 0, 0, 1, 0, 0)"><g clip-path="url(#f230c94145)"><g transform="matrix(1, 0, 0, 1, 0, 0)"><g clip-path="url(#0bc36d03ce)"><g mask="url(#4a6553db90)"><g transform="matrix(1, 0, 0, 1, 0, 0)"><g clip-path="url(#b7d888fc0e)"><g clip-path="url(#8f63b89182)"><rect x="-644.16" fill="url(#b57ba5b64c)" width="2488.32" height="622.079975" y="-161.039994"/></g></g></g></g></g></g></g></g></svg>